<svg width="466" height="70" viewBox="0 0 466 70" fill="none" xmlns="http://www.w3.org/2000/svg">
<rect x="0.795455" y="0.795455" width="208.409" height="68.4091" rx="10.3409" fill="black"/>
<rect x="0.795455" y="0.795455" width="208.409" height="68.4091" rx="10.3409" stroke="#A6A6A6" stroke-width="1.59091"/>
<path d="M142.67 33.6016V37.6109H140.157V40.2402H142.67V49.1739C142.67 52.2244 144.05 53.4447 147.522 53.4447C148.132 53.4447 148.713 53.372 149.222 53.2849V50.6846C148.786 50.7282 148.51 50.7573 148.03 50.7573C146.476 50.7573 145.793 50.031 145.793 48.375V40.2402H149.222V37.6109H145.793V33.6016H142.67Z" fill="white"/>
<path d="M158.066 53.6626C162.685 53.6626 165.518 50.5684 165.518 45.4406C165.518 40.3419 162.671 37.2332 158.066 37.2332C153.446 37.2332 150.599 40.3419 150.599 45.4406C150.599 50.5684 153.432 53.6626 158.066 53.6626ZM158.066 50.888C155.349 50.888 153.824 48.8979 153.824 45.4406C153.824 42.0124 155.349 40.0078 158.066 40.0078C160.768 40.0078 162.308 42.0124 162.308 45.4406C162.308 48.8834 160.768 50.888 158.066 50.888Z" fill="white"/>
<path d="M167.941 53.3575H171.065V44.017C171.065 41.7945 172.735 40.2983 175.103 40.2983C175.655 40.2983 176.585 40.4 176.846 40.4871V37.4075C176.512 37.3204 175.916 37.2768 175.452 37.2768C173.389 37.2768 171.631 38.4099 171.181 39.9642H170.948V37.5383H167.941V53.3575Z" fill="white"/>
<path d="M184.601 39.8915C186.911 39.8915 188.421 41.504 188.494 43.988H180.504C180.679 41.5185 182.291 39.8915 184.601 39.8915ZM188.479 49.0867C187.898 50.3215 186.605 51.0042 184.717 51.0042C182.219 51.0042 180.606 49.2465 180.504 46.472V46.2977H191.675V45.2082C191.675 40.2402 189.017 37.2332 184.615 37.2332C180.156 37.2332 177.323 40.4436 177.323 45.4987C177.323 50.5539 180.098 53.6626 184.63 53.6626C188.247 53.6626 190.775 51.9194 191.486 49.0867H188.479Z" fill="white"/>
<path d="M122.189 47.5157C122.43 51.4002 125.667 53.8845 130.485 53.8845C135.634 53.8845 138.856 51.2798 138.856 47.1243C138.856 43.8571 137.019 42.0503 132.563 41.0114L130.169 40.4243C127.338 39.7618 126.194 38.8735 126.194 37.3227C126.194 35.3654 127.97 34.0856 130.635 34.0856C133.165 34.0856 134.911 35.3353 135.228 37.3377H138.51C138.314 33.6791 135.092 31.1045 130.681 31.1045C125.938 31.1045 122.776 33.6791 122.776 37.5485C122.776 40.7404 124.568 42.6375 128.497 43.5559L131.298 44.2335C134.174 44.911 135.438 45.9047 135.438 47.5609C135.438 49.4881 133.451 50.8883 130.741 50.8883C127.835 50.8883 125.817 49.5784 125.531 47.5157H122.189Z" fill="white"/>
<path d="M89.836 37.2768C87.6861 37.2768 85.8268 38.3518 84.868 40.153H84.6356V37.5383H81.6286V58.616H84.7518V50.9606H84.9988C85.8268 52.6312 87.6135 53.619 89.8651 53.619C93.8598 53.619 96.402 50.4668 96.402 45.4406C96.402 40.4145 93.8598 37.2768 89.836 37.2768ZM88.9499 50.8154C86.3352 50.8154 84.6937 48.7526 84.6937 45.4552C84.6937 42.1431 86.3352 40.0804 88.9645 40.0804C91.6083 40.0804 93.1916 42.0996 93.1916 45.4406C93.1916 48.7962 91.6083 50.8154 88.9499 50.8154Z" fill="white"/>
<path d="M107.33 37.2768C105.181 37.2768 103.321 38.3518 102.362 40.153H102.13V37.5383H99.123V58.616H102.246V50.9606H102.493C103.321 52.6312 105.108 53.619 107.359 53.619C111.354 53.619 113.896 50.4668 113.896 45.4406C113.896 40.4145 111.354 37.2768 107.33 37.2768ZM106.444 50.8154C103.83 50.8154 102.188 48.7526 102.188 45.4552C102.188 42.1431 103.83 40.0804 106.459 40.0804C109.103 40.0804 110.686 42.0996 110.686 45.4406C110.686 48.7962 109.103 50.8154 106.444 50.8154Z" fill="white"/>
<path d="M76.0251 53.3575H79.6085L71.7642 31.6315H68.1357L60.2914 53.3575H63.7544L65.7568 47.591H74.0377L76.0251 53.3575ZM69.7768 35.5762H70.0328L73.1795 44.7604H66.615L69.7768 35.5762Z" fill="white"/>
<path d="M62.3896 15.2441V25.7249H66.1738C69.2969 25.7249 71.1055 23.8002 71.1055 20.4518C71.1055 17.1544 69.2824 15.2441 66.1738 15.2441H62.3896ZM64.0166 16.7258H65.9922C68.1639 16.7258 69.4495 18.1058 69.4495 20.4736C69.4495 22.8778 68.1857 24.2432 65.9922 24.2432H64.0166V16.7258Z" fill="white"/>
<path d="M76.6444 25.8774C78.9541 25.8774 80.3704 24.3304 80.3704 21.7665C80.3704 19.2171 78.9468 17.6628 76.6444 17.6628C74.3347 17.6628 72.9111 19.2171 72.9111 21.7665C72.9111 24.3304 74.3274 25.8774 76.6444 25.8774ZM76.6444 24.4902C75.2862 24.4902 74.5235 23.4951 74.5235 21.7665C74.5235 20.0524 75.2862 19.0501 76.6444 19.0501C77.9953 19.0501 78.7652 20.0524 78.7652 21.7665C78.7652 23.4879 77.9953 24.4902 76.6444 24.4902Z" fill="white"/>
<path d="M92.4317 17.8153H90.8701L89.461 23.851H89.3375L87.7106 17.8153H86.2144L84.5874 23.851H84.4712L83.0549 17.8153H81.4715L83.6505 25.7249H85.2556L86.8826 19.8998H87.006L88.6403 25.7249H90.26L92.4317 17.8153Z" fill="white"/>
<path d="M94.23 25.7249H95.7916V21.0983C95.7916 19.8635 96.5252 19.0936 97.68 19.0936C98.8349 19.0936 99.3869 19.7255 99.3869 20.9966V25.7249H100.948V20.6044C100.948 18.7232 99.9752 17.6628 98.2102 17.6628C97.0191 17.6628 96.2347 18.193 95.8497 19.0718H95.7335V17.8153H94.23V25.7249Z" fill="white"/>
<path d="M103.408 25.7249H104.969V14.7285H103.408V25.7249Z" fill="white"/>
<path d="M110.842 25.8774C113.152 25.8774 114.568 24.3304 114.568 21.7665C114.568 19.2171 113.145 17.6628 110.842 17.6628C108.533 17.6628 107.109 19.2171 107.109 21.7665C107.109 24.3304 108.525 25.8774 110.842 25.8774ZM110.842 24.4902C109.484 24.4902 108.722 23.4951 108.722 21.7665C108.722 20.0524 109.484 19.0501 110.842 19.0501C112.193 19.0501 112.963 20.0524 112.963 21.7665C112.963 23.4879 112.193 24.4902 110.842 24.4902Z" fill="white"/>
<path d="M119.221 24.541C118.371 24.541 117.754 24.127 117.754 23.4152C117.754 22.718 118.248 22.3475 119.337 22.2749L121.269 22.1514V22.8124C121.269 23.7929 120.398 24.541 119.221 24.541ZM118.822 25.8557C119.86 25.8557 120.725 25.4053 121.197 24.6137H121.32V25.7249H122.824V20.3211C122.824 18.6506 121.705 17.6628 119.722 17.6628C117.928 17.6628 116.65 18.5344 116.49 19.8926H118.001C118.175 19.3333 118.778 19.0137 119.65 19.0137C120.717 19.0137 121.269 19.4858 121.269 20.3211V21.0038L119.127 21.1273C117.246 21.2435 116.185 22.0643 116.185 23.4879C116.185 24.9332 117.296 25.8557 118.822 25.8557Z" fill="white"/>
<path d="M128.123 25.8557C129.212 25.8557 130.135 25.34 130.607 24.4757H130.73V25.7249H132.227V14.7285H130.665V19.0718H130.549C130.12 18.2003 129.205 17.6846 128.123 17.6846C126.126 17.6846 124.84 19.2679 124.84 21.7665C124.84 24.2723 126.111 25.8557 128.123 25.8557ZM128.566 19.0864C129.873 19.0864 130.694 20.125 130.694 21.7737C130.694 23.4298 129.881 24.4539 128.566 24.4539C127.244 24.4539 126.452 23.4443 126.452 21.7665C126.452 20.1032 127.251 19.0864 128.566 19.0864Z" fill="white"/>
<path d="M142.353 25.8774C144.663 25.8774 146.079 24.3304 146.079 21.7665C146.079 19.2171 144.655 17.6628 142.353 17.6628C140.043 17.6628 138.62 19.2171 138.62 21.7665C138.62 24.3304 140.036 25.8774 142.353 25.8774ZM142.353 24.4902C140.995 24.4902 140.232 23.4951 140.232 21.7665C140.232 20.0524 140.995 19.0501 142.353 19.0501C143.704 19.0501 144.474 20.0524 144.474 21.7665C144.474 23.4879 143.704 24.4902 142.353 24.4902Z" fill="white"/>
<path d="M148.146 25.7249H149.708V21.0983C149.708 19.8635 150.441 19.0936 151.596 19.0936C152.751 19.0936 153.303 19.7255 153.303 20.9966V25.7249H154.865V20.6044C154.865 18.7232 153.891 17.6628 152.126 17.6628C150.935 17.6628 150.151 18.193 149.766 19.0718H149.65V17.8153H148.146V25.7249Z" fill="white"/>
<path d="M162.057 15.847V17.8516H160.8V19.1663H162.057V23.6331C162.057 25.1584 162.747 25.7685 164.482 25.7685C164.788 25.7685 165.078 25.7322 165.332 25.6886V24.3885C165.114 24.4103 164.976 24.4248 164.737 24.4248C163.96 24.4248 163.618 24.0617 163.618 23.2336V19.1663H165.332V17.8516H163.618V15.847H162.057Z" fill="white"/>
<path d="M167.428 25.7249H168.99V21.1055C168.99 19.9071 169.702 19.1009 170.98 19.1009C172.084 19.1009 172.672 19.7401 172.672 21.0038V25.7249H174.234V20.6189C174.234 18.7377 173.195 17.67 171.51 17.67C170.319 17.67 169.484 18.2003 169.099 19.0864H168.975V14.7285H167.428V25.7249Z" fill="white"/>
<path d="M179.867 18.9919C181.022 18.9919 181.778 19.7982 181.814 21.0402H177.819C177.906 19.8054 178.713 18.9919 179.867 18.9919ZM181.807 23.5895C181.516 24.2069 180.87 24.5483 179.925 24.5483C178.676 24.5483 177.87 23.6694 177.819 22.2822V22.195H183.405V21.6503C183.405 19.1663 182.075 17.6628 179.875 17.6628C177.645 17.6628 176.229 19.2679 176.229 21.7955C176.229 24.3231 177.616 25.8774 179.882 25.8774C181.69 25.8774 182.954 25.0059 183.31 23.5895H181.807Z" fill="white"/>
<path d="M43.3456 35.5265C43.3835 32.5848 44.9634 29.8012 47.4696 28.2604C45.8885 26.0023 43.2403 24.5707 40.4851 24.4845C37.5464 24.176 34.6975 26.2429 33.2 26.2429C31.6735 26.2429 29.3679 24.5151 26.8851 24.5662C23.6489 24.6707 20.632 26.5106 19.0575 29.3399C15.673 35.1997 18.1975 43.8115 21.4396 48.5481C23.0617 50.8675 24.9574 53.4582 27.438 53.3664C29.8653 53.2657 30.7719 51.8185 33.7019 51.8185C36.6048 51.8185 37.4553 53.3664 39.9862 53.308C42.5908 53.2657 44.2319 50.9783 45.7971 48.637C46.9625 46.9843 47.8593 45.1578 48.4543 43.2251C45.3933 41.9304 43.3492 38.85 43.3456 35.5265Z" fill="white"/>
<path d="M38.5652 21.3695C39.9854 19.6646 40.6851 17.4733 40.5156 15.2609C38.3459 15.4888 36.3417 16.5257 34.9024 18.1652C33.4949 19.767 32.7624 21.9198 32.9009 24.0476C35.0714 24.07 37.2051 23.0611 38.5652 21.3695Z" fill="white"/>
<rect x="229.887" y="0.795455" width="234.659" height="68.4091" rx="7.1591" fill="black"/>
<rect x="229.887" y="0.795455" width="234.659" height="68.4091" rx="7.1591" stroke="#A6A6A6" stroke-width="1.59091"/>
<path d="M348.33 38.0645C344.214 38.0645 340.859 41.1952 340.859 45.5072C340.859 49.793 344.214 52.95 348.33 52.95C352.447 52.95 355.802 49.793 355.802 45.5072C355.8 41.1952 352.446 38.0645 348.33 38.0645ZM348.33 50.0205C346.074 50.0205 344.13 48.1602 344.13 45.509C344.13 42.8297 346.076 40.9975 348.33 40.9975C350.585 40.9975 352.53 42.8297 352.53 45.509C352.53 48.1585 350.585 50.0205 348.33 50.0205ZM332.03 38.0645C327.914 38.0645 324.559 41.1952 324.559 45.5072C324.559 49.793 327.914 52.95 332.03 52.95C336.148 52.95 339.503 49.793 339.503 45.5072C339.503 41.1952 336.148 38.0645 332.03 38.0645ZM332.03 50.0205C329.774 50.0205 327.83 48.1602 327.83 45.509C327.83 42.8297 329.776 40.9975 332.03 40.9975C334.286 40.9975 336.23 42.8297 336.23 45.509C336.232 48.1585 334.286 50.0205 332.03 50.0205ZM312.643 40.35V43.507H320.2C319.974 45.2832 319.383 46.58 318.48 47.4812C317.381 48.5802 315.66 49.793 312.643 49.793C307.992 49.793 304.355 46.0427 304.355 41.3912C304.355 36.7397 307.992 32.9895 312.643 32.9895C315.153 32.9895 316.985 33.9765 318.338 35.2452L320.566 33.0175C318.676 31.2132 316.168 29.8325 312.643 29.8325C306.272 29.8325 300.915 35.0195 300.915 41.3912C300.915 47.763 306.272 52.95 312.643 52.95C316.082 52.95 318.677 51.8212 320.706 49.7072C322.792 47.6212 323.441 44.6882 323.441 42.3205C323.441 41.589 323.385 40.9117 323.271 40.3482H312.643V40.35ZM391.933 42.8017C391.313 41.1392 389.423 38.0645 385.561 38.0645C381.727 38.0645 378.54 41.0815 378.54 45.5072C378.54 49.6792 381.699 52.95 385.927 52.95C389.337 52.95 391.311 50.864 392.13 49.6512L389.593 47.959C388.748 49.1997 387.591 50.017 385.927 50.017C384.264 50.017 383.079 49.2557 382.318 47.7612L392.27 43.6452L391.933 42.8017ZM381.783 45.2832C381.699 42.4062 384.01 40.9415 385.675 40.9415C386.971 40.9415 388.07 41.5907 388.438 42.52L381.783 45.2832ZM373.692 52.5002H376.961V30.6235H373.692V52.5002ZM368.334 39.7287H368.222C367.489 38.8537 366.078 38.0645 364.304 38.0645C360.581 38.0645 357.171 41.3352 357.171 45.537C357.171 49.709 360.581 52.9517 364.304 52.9517C366.08 52.9517 367.489 52.1625 368.222 51.2612H368.334V52.3322C368.334 55.1795 366.811 56.702 364.36 56.702C362.358 56.702 361.117 55.2652 360.609 54.0525L357.762 55.2372C358.579 57.2095 360.749 59.635 364.36 59.635C368.194 59.635 371.437 57.3792 371.437 51.8807V38.5177H368.336V39.7287H368.334ZM364.585 50.0205C362.33 50.0205 360.441 48.1305 360.441 45.537C360.441 42.9137 362.33 40.9975 364.585 40.9975C366.811 40.9975 368.56 42.9137 368.56 45.537C368.56 48.1305 366.811 50.0205 364.585 50.0205ZM407.252 30.6235H399.428V52.5002H402.692V44.2122H407.25C410.869 44.2122 414.429 41.5925 414.429 37.4187C414.429 33.245 410.871 30.6235 407.252 30.6235ZM407.336 41.1672H402.692V33.6685H407.336C409.777 33.6685 411.163 35.6897 411.163 37.4187C411.163 39.1127 409.777 41.1672 407.336 41.1672ZM427.517 38.026C425.153 38.026 422.705 39.0672 421.691 41.3755L424.589 42.5847C425.209 41.3755 426.364 40.98 427.573 40.98C429.262 40.98 430.979 41.9932 431.007 43.794V44.0197C430.415 43.682 429.148 43.1762 427.601 43.1762C424.477 43.1762 421.296 44.893 421.296 48.1007C421.296 51.0285 423.858 52.9132 426.728 52.9132C428.922 52.9132 430.133 51.928 430.893 50.773H431.005V52.4617H434.158V44.074C434.16 40.1925 431.259 38.026 427.517 38.026ZM427.122 50.0152C426.054 50.0152 424.561 49.4797 424.561 48.1567C424.561 46.468 426.42 45.8205 428.025 45.8205C429.458 45.8205 430.135 46.1302 431.007 46.552C430.753 48.5802 429.008 50.0152 427.122 50.0152ZM445.642 38.5037L441.899 47.9887H441.787L437.902 38.5037H434.384L440.21 51.76L436.888 59.1345H440.294L449.273 38.5037H445.642ZM416.231 52.5002H419.495V30.6235H416.231V52.5002Z" fill="white"/>
<path d="M312.073 17.9252C312.073 19.3917 311.639 20.559 310.769 21.4305C309.782 22.4665 308.494 22.9845 306.912 22.9845C305.397 22.9845 304.107 22.4595 303.048 21.4095C301.988 20.3577 301.458 19.0557 301.458 17.5017C301.458 15.946 301.988 14.644 303.048 13.594C304.107 12.5422 305.397 12.0172 306.912 12.0172C307.665 12.0172 308.384 12.1642 309.067 12.4565C309.751 12.7505 310.299 13.1407 310.708 13.629L309.786 14.553C309.091 13.7217 308.134 13.307 306.911 13.307C305.805 13.307 304.849 13.6955 304.042 14.4725C303.236 15.2495 302.833 16.2592 302.833 17.5C302.833 18.7407 303.236 19.7505 304.042 20.5275C304.849 21.3045 305.805 21.693 306.911 21.693C308.083 21.693 309.061 21.3027 309.844 20.5205C310.351 20.0112 310.645 19.3025 310.724 18.3942H306.911V17.1325H311.998C312.05 17.4072 312.073 17.6715 312.073 17.9252Z" fill="white"/>
<path d="M320.141 13.5398H315.36V16.8683H319.672V18.1301H315.36V21.4586H320.141V22.7501H314.011V12.2501H320.141V13.5398Z" fill="white"/>
<path d="M325.83 22.7501H324.481V13.5398H321.548V12.2501H328.763V13.5398H325.83V22.7501Z" fill="white"/>
<path d="M333.983 22.7501V12.2501H335.332V22.7501H333.983Z" fill="white"/>
<path d="M341.316 22.7501H339.967V13.5398H337.034V12.2501H344.249V13.5398H341.316V22.7501Z" fill="white"/>
<path d="M357.907 21.3938C356.875 22.4543 355.592 22.9846 354.057 22.9846C352.522 22.9846 351.24 22.4543 350.209 21.3938C349.176 20.3333 348.662 19.0348 348.662 17.5C348.662 15.9653 349.176 14.6668 350.209 13.6063C351.24 12.5458 352.522 12.0138 354.057 12.0138C355.583 12.0138 356.864 12.5475 357.9 13.6133C358.936 14.679 359.454 15.974 359.454 17.5C359.454 19.0348 358.938 20.3333 357.907 21.3938ZM351.205 20.5135C351.982 21.3011 352.932 21.6931 354.057 21.6931C355.182 21.6931 356.134 21.2993 356.91 20.5135C357.687 19.726 358.077 18.7215 358.077 17.5C358.077 16.2785 357.687 15.274 356.91 14.4865C356.134 13.699 355.182 13.307 354.057 13.307C352.932 13.307 351.982 13.7008 351.205 14.4865C350.429 15.274 350.039 16.2785 350.039 17.5C350.039 18.7215 350.429 19.726 351.205 20.5135Z" fill="white"/>
<path d="M361.348 22.7501V12.2501H362.989L368.092 20.4173H368.15L368.092 18.3943V12.2501H369.441V22.7501H368.033L362.693 14.1856H362.636L362.693 16.2086V22.7501H361.348Z" fill="white"/>
<path d="M312.073 17.9252C312.073 19.3917 311.639 20.559 310.769 21.4305C309.782 22.4665 308.494 22.9845 306.912 22.9845C305.397 22.9845 304.107 22.4595 303.048 21.4095C301.988 20.3577 301.458 19.0557 301.458 17.5017C301.458 15.946 301.988 14.644 303.048 13.594C304.107 12.5422 305.397 12.0172 306.912 12.0172C307.665 12.0172 308.384 12.1642 309.067 12.4565C309.751 12.7505 310.299 13.1407 310.708 13.629L309.786 14.553C309.091 13.7217 308.134 13.307 306.911 13.307C305.805 13.307 304.849 13.6955 304.042 14.4725C303.236 15.2495 302.833 16.2592 302.833 17.5C302.833 18.7407 303.236 19.7505 304.042 20.5275C304.849 21.3045 305.805 21.693 306.911 21.693C308.083 21.693 309.061 21.3027 309.844 20.5205C310.351 20.0112 310.645 19.3025 310.724 18.3942H306.911V17.1325H311.998C312.05 17.4072 312.073 17.6715 312.073 17.9252Z" stroke="white" stroke-width="0.318182" stroke-miterlimit="10"/>
<path d="M320.141 13.5398H315.36V16.8683H319.672V18.1301H315.36V21.4586H320.141V22.7501H314.011V12.2501H320.141V13.5398Z" stroke="white" stroke-width="0.318182" stroke-miterlimit="10"/>
<path d="M325.83 22.7501H324.481V13.5398H321.548V12.2501H328.763V13.5398H325.83V22.7501Z" stroke="white" stroke-width="0.318182" stroke-miterlimit="10"/>
<path d="M333.983 22.7501V12.2501H335.332V22.7501H333.983Z" stroke="white" stroke-width="0.318182" stroke-miterlimit="10"/>
<path d="M341.316 22.7501H339.967V13.5398H337.034V12.2501H344.249V13.5398H341.316V22.7501Z" stroke="white" stroke-width="0.318182" stroke-miterlimit="10"/>
<path d="M357.907 21.3938C356.875 22.4543 355.592 22.9846 354.057 22.9846C352.522 22.9846 351.24 22.4543 350.209 21.3938C349.176 20.3333 348.662 19.0348 348.662 17.5C348.662 15.9653 349.176 14.6668 350.209 13.6063C351.24 12.5458 352.522 12.0138 354.057 12.0138C355.583 12.0138 356.864 12.5475 357.9 13.6133C358.936 14.679 359.454 15.974 359.454 17.5C359.454 19.0348 358.938 20.3333 357.907 21.3938ZM351.205 20.5135C351.982 21.3011 352.932 21.6931 354.057 21.6931C355.182 21.6931 356.134 21.2993 356.91 20.5135C357.687 19.726 358.077 18.7215 358.077 17.5C358.077 16.2785 357.687 15.274 356.91 14.4865C356.134 13.699 355.182 13.307 354.057 13.307C352.932 13.307 351.982 13.7008 351.205 14.4865C350.429 15.274 350.039 16.2785 350.039 17.5C350.039 18.7215 350.429 19.726 351.205 20.5135Z" stroke="white" stroke-width="0.318182" stroke-miterlimit="10"/>
<path d="M361.348 22.7501V12.2501H362.989L368.092 20.4173H368.15L368.092 18.3943V12.2501H369.441V22.7501H368.033L362.693 14.1856H362.636L362.693 16.2086V22.7501H361.348Z" stroke="white" stroke-width="0.318182" stroke-miterlimit="10"/>
<g filter="url(#filter0_ii_541_1011)">
<path d="M247.354 13.1916C246.845 13.7306 246.544 14.5671 246.544 15.6503V54.3534C246.544 55.4384 246.845 56.2731 247.354 56.8121L247.484 56.9381L269.165 35.2574V35.0019V34.7464L247.484 13.0638L247.354 13.1916Z" fill="url(#paint0_linear_541_1011)"/>
<path d="M276.39 42.4866L269.164 35.2574V35.0019V34.7464L276.392 27.5189L276.555 27.6116L285.117 32.4766C287.562 33.8661 287.562 36.1394 285.117 37.5306L276.555 42.3956L276.39 42.4866Z" fill="url(#paint1_linear_541_1011)"/>
<g filter="url(#filter1_i_541_1011)">
<path d="M276.555 42.3938L269.163 35.0018L247.354 56.812C248.159 57.666 249.491 57.771 250.991 56.9205L276.555 42.3938Z" fill="url(#paint2_linear_541_1011)"/>
</g>
<path d="M276.555 27.6098L250.991 13.0848C249.491 12.2325 248.159 12.3393 247.354 13.1933L269.164 35.0035L276.555 27.6098Z" fill="url(#paint3_linear_541_1011)"/>
</g>
<defs>
<filter id="filter0_ii_541_1011" x="246.544" y="12.4966" width="40.4069" height="45.0114" filterUnits="userSpaceOnUse" color-interpolation-filters="sRGB">
<feFlood flood-opacity="0" result="BackgroundImageFix"/>
<feBlend mode="normal" in="SourceGraphic" in2="BackgroundImageFix" result="shape"/>
<feColorMatrix in="SourceAlpha" type="matrix" values="0 0 0 0 0 0 0 0 0 0 0 0 0 0 0 0 0 0 127 0" result="hardAlpha"/>
<feOffset dy="-0.238637"/>
<feComposite in2="hardAlpha" operator="arithmetic" k2="-1" k3="1"/>
<feColorMatrix type="matrix" values="0 0 0 0 0 0 0 0 0 0 0 0 0 0 0 0 0 0 0.12 0"/>
<feBlend mode="normal" in2="shape" result="effect1_innerShadow_541_1011"/>
<feColorMatrix in="SourceAlpha" type="matrix" values="0 0 0 0 0 0 0 0 0 0 0 0 0 0 0 0 0 0 127 0" result="hardAlpha"/>
<feOffset dy="0.238637"/>
<feComposite in2="hardAlpha" operator="arithmetic" k2="-1" k3="1"/>
<feColorMatrix type="matrix" values="0 0 0 0 1 0 0 0 0 1 0 0 0 0 1 0 0 0 0.25 0"/>
<feBlend mode="normal" in2="effect1_innerShadow_541_1011" result="effect2_innerShadow_541_1011"/>
</filter>
<filter id="filter1_i_541_1011" x="247.354" y="35.0018" width="29.2005" height="22.5062" filterUnits="userSpaceOnUse" color-interpolation-filters="sRGB">
<feFlood flood-opacity="0" result="BackgroundImageFix"/>
<feBlend mode="normal" in="SourceGraphic" in2="BackgroundImageFix" result="shape"/>
<feColorMatrix in="SourceAlpha" type="matrix" values="0 0 0 0 0 0 0 0 0 0 0 0 0 0 0 0 0 0 127 0" result="hardAlpha"/>
<feOffset dy="-0.238637"/>
<feComposite in2="hardAlpha" operator="arithmetic" k2="-1" k3="1"/>
<feColorMatrix type="matrix" values="0 0 0 0 0 0 0 0 0 0 0 0 0 0 0 0 0 0 0.08 0"/>
<feBlend mode="normal" in2="shape" result="effect1_innerShadow_541_1011"/>
</filter>
<linearGradient id="paint0_linear_541_1011" x1="267.243" y1="15.2408" x2="237.874" y2="44.6094" gradientUnits="userSpaceOnUse">
<stop stop-color="#00A0FF"/>
<stop offset="0.0066" stop-color="#00A1FF"/>
<stop offset="0.2601" stop-color="#00BEFF"/>
<stop offset="0.5122" stop-color="#00D2FF"/>
<stop offset="0.7604" stop-color="#00DFFF"/>
<stop offset="1" stop-color="#00E3FF"/>
</linearGradient>
<linearGradient id="paint1_linear_541_1011" x1="288.3" y1="35.0019" x2="245.957" y2="35.0019" gradientUnits="userSpaceOnUse">
<stop stop-color="#FFE000"/>
<stop offset="0.4087" stop-color="#FFBD00"/>
<stop offset="0.7754" stop-color="#FFA500"/>
<stop offset="1" stop-color="#FF9C00"/>
</linearGradient>
<linearGradient id="paint2_linear_541_1011" x1="272.54" y1="39.0161" x2="232.713" y2="78.8435" gradientUnits="userSpaceOnUse">
<stop stop-color="#FF3A44"/>
<stop offset="1" stop-color="#C31162"/>
</linearGradient>
<linearGradient id="paint3_linear_541_1011" x1="241.862" y1="0.309416" x2="259.646" y2="18.0935" gradientUnits="userSpaceOnUse">
<stop stop-color="#32A071"/>
<stop offset="0.0685" stop-color="#2DA771"/>
<stop offset="0.4762" stop-color="#15CF74"/>
<stop offset="0.8009" stop-color="#06E775"/>
<stop offset="1" stop-color="#00F076"/>
</linearGradient>
</defs>
</svg>
