<svg width="70" height="70" viewBox="0 0 70 70" fill="none" xmlns="http://www.w3.org/2000/svg">
<path d="M52.5 26.25C57.3325 26.25 61.25 22.3325 61.25 17.5C61.25 12.6675 57.3325 8.75 52.5 8.75C47.6675 8.75 43.75 12.6675 43.75 17.5C43.75 22.3325 47.6675 26.25 52.5 26.25Z" fill="#CBFFD0"/>
<path d="M37.9167 17.5C37.9167 15.4233 38.3629 13.4546 39.1475 11.6667H17.5C14.2829 11.6667 11.6667 14.2829 11.6667 17.5V52.5C11.6667 55.7171 14.2829 58.3333 17.5 58.3333H52.5C55.7171 58.3333 58.3333 55.7171 58.3333 52.5V30.8525C56.4944 31.6601 54.5084 32.0791 52.5 32.0833C48.6323 32.0833 44.9229 30.5469 42.188 27.812C39.4531 25.0771 37.9167 21.3677 37.9167 17.5Z" fill="#CBFFD0"/>
</svg>
