<svg width="397" height="65" viewBox="0 0 397 65" fill="none" xmlns="http://www.w3.org/2000/svg">
<path d="M59.4 30C59.4 27.2533 60.0133 24.8 61.24 22.64C62.4933 20.4533 64.1867 18.76 66.32 17.56C68.48 16.3333 70.8933 15.72 73.56 15.72C76.68 15.72 79.4133 16.52 81.76 18.12C84.1067 19.72 85.7467 21.9333 86.68 24.76H80.24C79.6 23.4267 78.6933 22.4267 77.52 21.76C76.3733 21.0933 75.04 20.76 73.52 20.76C71.8933 20.76 70.44 21.1467 69.16 21.92C67.9067 22.6667 66.92 23.7333 66.2 25.12C65.5067 26.5067 65.16 28.1333 65.16 30C65.16 31.84 65.5067 33.4667 66.2 34.88C66.92 36.2667 67.9067 37.3467 69.16 38.12C70.44 38.8667 71.8933 39.24 73.52 39.24C75.04 39.24 76.3733 38.9067 77.52 38.24C78.6933 37.5467 79.6 36.5333 80.24 35.2H86.68C85.7467 38.0533 84.1067 40.28 81.76 41.88C79.44 43.4533 76.7067 44.24 73.56 44.24C70.8933 44.24 68.48 43.64 66.32 42.44C64.1867 41.2133 62.4933 39.52 61.24 37.36C60.0133 35.2 59.4 32.7467 59.4 30ZM101.303 44.36C99.1698 44.36 97.2498 43.8933 95.5431 42.96C93.8365 42 92.4898 40.6533 91.5031 38.92C90.5431 37.1867 90.0631 35.1867 90.0631 32.92C90.0631 30.6533 90.5565 28.6533 91.5431 26.92C92.5565 25.1867 93.9298 23.8533 95.6631 22.92C97.3965 21.96 99.3298 21.48 101.463 21.48C103.596 21.48 105.53 21.96 107.263 22.92C108.996 23.8533 110.356 25.1867 111.343 26.92C112.356 28.6533 112.863 30.6533 112.863 32.92C112.863 35.1867 112.343 37.1867 111.303 38.92C110.29 40.6533 108.903 42 107.143 42.96C105.41 43.8933 103.463 44.36 101.303 44.36ZM101.303 39.48C102.316 39.48 103.263 39.24 104.143 38.76C105.05 38.2533 105.77 37.5067 106.303 36.52C106.836 35.5333 107.103 34.3333 107.103 32.92C107.103 30.8133 106.543 29.2 105.423 28.08C104.33 26.9333 102.983 26.36 101.383 26.36C99.7831 26.36 98.4365 26.9333 97.3431 28.08C96.2765 29.2 95.7431 30.8133 95.7431 32.92C95.7431 35.0267 96.2631 36.6533 97.3031 37.8C98.3698 38.92 99.7031 39.48 101.303 39.48ZM129.251 21.52C131.891 21.52 134.024 22.36 135.651 24.04C137.278 25.6933 138.091 28.0133 138.091 31V44H132.491V31.76C132.491 30 132.051 28.6533 131.171 27.72C130.291 26.76 129.091 26.28 127.571 26.28C126.024 26.28 124.798 26.76 123.891 27.72C123.011 28.6533 122.571 30 122.571 31.76V44H116.971V21.84H122.571V24.6C123.318 23.64 124.264 22.8933 125.411 22.36C126.584 21.8 127.864 21.52 129.251 21.52ZM149.936 26.44V37.16C149.936 37.9067 150.11 38.4533 150.456 38.8C150.83 39.12 151.443 39.28 152.296 39.28H154.896V44H151.376C146.656 44 144.296 41.7067 144.296 37.12V26.44H141.656V21.84H144.296V16.36H149.936V21.84H154.896V26.44H149.936ZM157.484 32.84C157.484 30.6 157.924 28.6133 158.804 26.88C159.711 25.1467 160.924 23.8133 162.444 22.88C163.991 21.9467 165.711 21.48 167.604 21.48C169.257 21.48 170.697 21.8133 171.924 22.48C173.177 23.1467 174.177 23.9867 174.924 25V21.84H180.564V44H174.924V40.76C174.204 41.8 173.204 42.6667 171.924 43.36C170.671 44.0267 169.217 44.36 167.564 44.36C165.697 44.36 163.991 43.88 162.444 42.92C160.924 41.96 159.711 40.6133 158.804 38.88C157.924 37.12 157.484 35.1067 157.484 32.84ZM174.924 32.92C174.924 31.56 174.657 30.4 174.124 29.44C173.591 28.4533 172.871 27.7067 171.964 27.2C171.057 26.6667 170.084 26.4 169.044 26.4C168.004 26.4 167.044 26.6533 166.164 27.16C165.284 27.6667 164.564 28.4133 164.004 29.4C163.471 30.36 163.204 31.5067 163.204 32.84C163.204 34.1733 163.471 35.3467 164.004 36.36C164.564 37.3467 165.284 38.1067 166.164 38.64C167.071 39.1733 168.031 39.44 169.044 39.44C170.084 39.44 171.057 39.1867 171.964 38.68C172.871 38.1467 173.591 37.4 174.124 36.44C174.657 35.4533 174.924 34.28 174.924 32.92ZM184.593 32.92C184.593 30.6267 185.06 28.6267 185.993 26.92C186.927 25.1867 188.22 23.8533 189.873 22.92C191.527 21.96 193.42 21.48 195.553 21.48C198.3 21.48 200.567 22.1733 202.353 23.56C204.167 24.92 205.38 26.84 205.993 29.32H199.953C199.633 28.36 199.087 27.6133 198.313 27.08C197.567 26.52 196.633 26.24 195.513 26.24C193.913 26.24 192.647 26.8267 191.713 28C190.78 29.1467 190.313 30.7867 190.313 32.92C190.313 35.0267 190.78 36.6667 191.713 37.84C192.647 38.9867 193.913 39.56 195.513 39.56C197.78 39.56 199.26 38.5467 199.953 36.52H205.993C205.38 38.92 204.167 40.8267 202.353 42.24C200.54 43.6533 198.273 44.36 195.553 44.36C193.42 44.36 191.527 43.8933 189.873 42.96C188.22 42 186.927 40.6667 185.993 38.96C185.06 37.2267 184.593 35.2133 184.593 32.92ZM216.616 26.44V37.16C216.616 37.9067 216.789 38.4533 217.136 38.8C217.509 39.12 218.123 39.28 218.976 39.28H221.576V44H218.056C213.336 44 210.976 41.7067 210.976 37.12V26.44H208.336V21.84H210.976V16.36H216.616V21.84H221.576V26.44H216.616ZM244.775 44.28C242.828 44.28 241.068 43.9467 239.495 43.28C237.948 42.6133 236.722 41.6533 235.815 40.4C234.908 39.1467 234.442 37.6667 234.415 35.96H240.415C240.495 37.1067 240.895 38.0133 241.615 38.68C242.362 39.3467 243.375 39.68 244.655 39.68C245.962 39.68 246.988 39.3733 247.735 38.76C248.482 38.12 248.855 37.2933 248.855 36.28C248.855 35.4533 248.602 34.7733 248.095 34.24C247.588 33.7067 246.948 33.2933 246.175 33C245.428 32.68 244.388 32.3333 243.055 31.96C241.242 31.4267 239.762 30.9067 238.615 30.4C237.495 29.8667 236.522 29.08 235.695 28.04C234.895 26.9733 234.495 25.56 234.495 23.8C234.495 22.1467 234.908 20.7067 235.735 19.48C236.562 18.2533 237.722 17.32 239.215 16.68C240.708 16.0133 242.415 15.68 244.335 15.68C247.215 15.68 249.548 16.3867 251.335 17.8C253.148 19.1867 254.148 21.1333 254.335 23.64H248.175C248.122 22.68 247.708 21.8933 246.935 21.28C246.188 20.64 245.188 20.32 243.935 20.32C242.842 20.32 241.962 20.6 241.295 21.16C240.655 21.72 240.335 22.5333 240.335 23.6C240.335 24.3467 240.575 24.9733 241.055 25.48C241.562 25.96 242.175 26.36 242.895 26.68C243.642 26.9733 244.682 27.32 246.015 27.72C247.828 28.2533 249.308 28.7867 250.455 29.32C251.602 29.8533 252.588 30.6533 253.415 31.72C254.242 32.7867 254.655 34.1867 254.655 35.92C254.655 37.4133 254.268 38.8 253.495 40.08C252.722 41.36 251.588 42.3867 250.095 43.16C248.602 43.9067 246.828 44.28 244.775 44.28ZM280.43 21.84V44H274.79V41.2C274.07 42.16 273.123 42.92 271.95 43.48C270.803 44.0133 269.55 44.28 268.19 44.28C266.457 44.28 264.923 43.92 263.59 43.2C262.257 42.4533 261.203 41.3733 260.43 39.96C259.683 38.52 259.31 36.8133 259.31 34.84V21.84H264.91V34.04C264.91 35.8 265.35 37.16 266.23 38.12C267.11 39.0533 268.31 39.52 269.83 39.52C271.377 39.52 272.59 39.0533 273.47 38.12C274.35 37.16 274.79 35.8 274.79 34.04V21.84H280.43ZM291.555 25.04C292.275 24.0267 293.262 23.1867 294.515 22.52C295.795 21.8267 297.249 21.48 298.875 21.48C300.769 21.48 302.475 21.9467 303.995 22.88C305.542 23.8133 306.755 25.1467 307.635 26.88C308.542 28.5867 308.995 30.5733 308.995 32.84C308.995 35.1067 308.542 37.12 307.635 38.88C306.755 40.6133 305.542 41.96 303.995 42.92C302.475 43.88 300.769 44.36 298.875 44.36C297.249 44.36 295.809 44.0267 294.555 43.36C293.329 42.6933 292.329 41.8533 291.555 40.84V54.56H285.955V21.84H291.555V25.04ZM303.275 32.84C303.275 31.5067 302.995 30.36 302.435 29.4C301.902 28.4133 301.182 27.6667 300.275 27.16C299.395 26.6533 298.435 26.4 297.395 26.4C296.382 26.4 295.422 26.6667 294.515 27.2C293.635 27.7067 292.915 28.4533 292.355 29.44C291.822 30.4267 291.555 31.5867 291.555 32.92C291.555 34.2533 291.822 35.4133 292.355 36.4C292.915 37.3867 293.635 38.1467 294.515 38.68C295.422 39.1867 296.382 39.44 297.395 39.44C298.435 39.44 299.395 39.1733 300.275 38.64C301.182 38.1067 301.902 37.3467 302.435 36.36C302.995 35.3733 303.275 34.2 303.275 32.84ZM318.665 25.04C319.385 24.0267 320.371 23.1867 321.625 22.52C322.905 21.8267 324.358 21.48 325.985 21.48C327.878 21.48 329.585 21.9467 331.105 22.88C332.651 23.8133 333.865 25.1467 334.745 26.88C335.651 28.5867 336.105 30.5733 336.105 32.84C336.105 35.1067 335.651 37.12 334.745 38.88C333.865 40.6133 332.651 41.96 331.105 42.92C329.585 43.88 327.878 44.36 325.985 44.36C324.358 44.36 322.918 44.0267 321.665 43.36C320.438 42.6933 319.438 41.8533 318.665 40.84V54.56H313.065V21.84H318.665V25.04ZM330.385 32.84C330.385 31.5067 330.105 30.36 329.545 29.4C329.011 28.4133 328.291 27.6667 327.385 27.16C326.505 26.6533 325.545 26.4 324.505 26.4C323.491 26.4 322.531 26.6667 321.625 27.2C320.745 27.7067 320.025 28.4533 319.465 29.44C318.931 30.4267 318.665 31.5867 318.665 32.92C318.665 34.2533 318.931 35.4133 319.465 36.4C320.025 37.3867 320.745 38.1467 321.625 38.68C322.531 39.1867 323.491 39.44 324.505 39.44C325.545 39.44 326.505 39.1733 327.385 38.64C328.291 38.1067 329.011 37.3467 329.545 36.36C330.105 35.3733 330.385 34.2 330.385 32.84ZM350.014 44.36C347.881 44.36 345.961 43.8933 344.254 42.96C342.547 42 341.201 40.6533 340.214 38.92C339.254 37.1867 338.774 35.1867 338.774 32.92C338.774 30.6533 339.267 28.6533 340.254 26.92C341.267 25.1867 342.641 23.8533 344.374 22.92C346.107 21.96 348.041 21.48 350.174 21.48C352.307 21.48 354.241 21.96 355.974 22.92C357.707 23.8533 359.067 25.1867 360.054 26.92C361.067 28.6533 361.574 30.6533 361.574 32.92C361.574 35.1867 361.054 37.1867 360.014 38.92C359.001 40.6533 357.614 42 355.854 42.96C354.121 43.8933 352.174 44.36 350.014 44.36ZM350.014 39.48C351.027 39.48 351.974 39.24 352.854 38.76C353.761 38.2533 354.481 37.5067 355.014 36.52C355.547 35.5333 355.814 34.3333 355.814 32.92C355.814 30.8133 355.254 29.2 354.134 28.08C353.041 26.9333 351.694 26.36 350.094 26.36C348.494 26.36 347.147 26.9333 346.054 28.08C344.987 29.2 344.454 30.8133 344.454 32.92C344.454 35.0267 344.974 36.6533 346.014 37.8C347.081 38.92 348.414 39.48 350.014 39.48ZM371.282 25.28C372.002 24.1067 372.935 23.1867 374.082 22.52C375.255 21.8533 376.589 21.52 378.082 21.52V27.4H376.602C374.842 27.4 373.509 27.8133 372.602 28.64C371.722 29.4667 371.282 30.9067 371.282 32.96V44H365.682V21.84H371.282V25.28ZM388.374 26.44V37.16C388.374 37.9067 388.547 38.4533 388.894 38.8C389.267 39.12 389.88 39.28 390.734 39.28H393.334V44H389.814C385.094 44 382.734 41.7067 382.734 37.12V26.44H380.094V21.84H382.734V16.36H388.374V21.84H393.334V26.44H388.374Z" fill="white"/>
<mask id="mask0_541_1069" style="mask-type:luminance" maskUnits="userSpaceOnUse" x="5" y="13" width="40" height="40">
<path d="M40.625 14.25H9.375C8.5462 14.25 7.75134 14.5792 7.16529 15.1653C6.57924 15.7513 6.25 16.5462 6.25 17.375V48.625C6.25 49.4538 6.57924 50.2487 7.16529 50.8347C7.75134 51.4208 8.5462 51.75 9.375 51.75H40.625C41.4538 51.75 42.2487 51.4208 42.8347 50.8347C43.4208 50.2487 43.75 49.4538 43.75 48.625V17.375C43.75 16.5462 43.4208 15.7513 42.8347 15.1653C42.2487 14.5792 41.4538 14.25 40.625 14.25Z" fill="white" stroke="white" stroke-width="2"/>
<path d="M20.25 22.5835C20.7125 22.5835 21.1396 22.8345 21.3646 23.2397L22.9229 26.047C23.1271 26.4147 23.1365 26.8595 22.9479 27.2345L21.875 29.8752C21.875 29.8752 22.1375 32.221 23.9583 34.0418C25.7792 35.8627 28.125 36.1252 28.125 36.1252L30.7573 35.0439C31.1323 34.8564 31.5781 34.8668 31.9458 35.07L34.7615 36.6356C35.1656 36.8606 35.4167 37.2866 35.4167 37.7502V40.9825C35.4167 42.6283 33.8875 43.8168 32.3281 43.2908C29.124 42.2095 24.1511 40.1522 21 36.9991C17.8479 33.8481 15.7906 28.8762 14.7094 25.672C14.1833 24.1127 15.3719 22.5835 17.0177 22.5835H20.25Z" fill="black" stroke="black" stroke-width="1.959" stroke-linejoin="round"/>
</mask>
<g mask="url(#mask0_541_1069)">
<path d="M0 8H50V58H0V8Z" fill="white"/>
</g>
</svg>
