<svg width="70" height="70" viewBox="0 0 70 70" fill="none" xmlns="http://www.w3.org/2000/svg">
<path d="M37.9167 8.75C26.9208 8.75 18.0542 17.3542 17.5 28.175L11.9 35.5542C11.2 36.4583 11.9 37.9167 13.125 37.9167H17.5V46.6667C17.5 49.9042 20.0958 52.5 23.3333 52.5H26.25V61.25H46.6667V47.5708C53.5792 44.3042 58.3333 37.3333 58.3333 29.1667C58.3333 17.9083 49.2333 8.75 37.9167 8.75ZM40.8333 40.8333H35V37.9167H40.8333V40.8333ZM45.5 27.7083C44.7232 29.0199 43.6172 30.1057 42.2917 30.8583V35H33.5417V30.8583C29.3708 28.4375 27.9125 23.1 30.3333 18.9583C32.7542 14.8167 38.1208 13.3 42.2917 15.6917C46.4625 18.0833 47.9208 23.4792 45.5 27.7083Z" fill="#26A69A"/>
</svg>
