<svg width="70" height="70" viewBox="0 0 70 70" fill="none" xmlns="http://www.w3.org/2000/svg">
<path d="M46.6667 8.75C48.8985 8.74988 51.0461 9.60262 52.6699 11.1337C54.2938 12.6649 55.2712 14.7586 55.4021 16.9867L55.4167 17.5V46.6667H57.6042C59.4913 46.6667 61.0458 48.1017 61.2325 49.9392L61.25 50.3125V55.4167C61.2501 57.6485 60.3974 59.7961 58.8663 61.4199C57.3351 63.0438 55.2414 64.0212 53.0134 64.1521L52.5 64.1667H23.3333C21.1015 64.1668 18.9539 63.3141 17.3301 61.7829C15.7062 60.2518 14.7289 58.158 14.5979 55.93L14.5833 55.4167V26.25H9.47918C8.57659 26.2504 7.70594 25.916 7.03569 25.3115C6.36545 24.707 5.94327 23.8753 5.85084 22.9775L5.83334 22.6042V17.5C5.83322 15.2681 6.68596 13.1206 8.21709 11.4967C9.74822 9.8729 11.842 8.89552 14.07 8.76458L14.5833 8.75H46.6667ZM55.4167 52.5H29.1667V55.4167C29.1667 56.4375 28.9917 57.4204 28.6708 58.3333H52.5C53.2736 58.3333 54.0154 58.0261 54.5624 57.4791C55.1094 56.9321 55.4167 56.1902 55.4167 55.4167V52.5ZM35 35H29.1667C28.4233 35.0008 27.7083 35.2855 27.1677 35.7958C26.6271 36.3061 26.3018 37.0036 26.2583 37.7457C26.2147 38.4879 26.4561 39.2186 26.9333 39.7887C27.4104 40.3588 28.0872 40.7251 28.8254 40.8129L29.1667 40.8333H35C35.7434 40.8325 36.4584 40.5479 36.999 40.0375C37.5396 39.5272 37.8649 38.8297 37.9084 38.0876C37.952 37.3455 37.7105 36.6147 37.2334 36.0447C36.7563 35.4746 36.0795 35.1082 35.3413 35.0204L35 35ZM40.8333 23.3333H29.1667C28.3931 23.3333 27.6513 23.6406 27.1043 24.1876C26.5573 24.7346 26.25 25.4765 26.25 26.25C26.25 27.0236 26.5573 27.7654 27.1043 28.3124C27.6513 28.8594 28.3931 29.1667 29.1667 29.1667H40.8333C41.6069 29.1667 42.3488 28.8594 42.8957 28.3124C43.4427 27.7654 43.75 27.0236 43.75 26.25C43.75 25.4765 43.4427 24.7346 42.8957 24.1876C42.3488 23.6406 41.6069 23.3333 40.8333 23.3333ZM14.5833 14.5833C13.8098 14.5833 13.0679 14.8906 12.5209 15.4376C11.974 15.9846 11.6667 16.7265 11.6667 17.5V20.4167H14.5833V14.5833Z" fill="#26A69A"/>
</svg>
