<svg width="65" height="65" viewBox="0 0 65 65" fill="none" xmlns="http://www.w3.org/2000/svg">
<path d="M35.2842 5.41675C38.331 5.42487 39.8775 5.44112 41.2127 5.47904L41.7381 5.498C42.3448 5.51966 42.9433 5.54675 43.6665 5.57925C46.5481 5.71466 48.5144 6.16966 50.2396 6.83862C52.0271 7.52654 53.5329 8.45821 55.0388 9.96133C56.4165 11.3148 57.4822 12.9526 58.1615 14.7605C58.8304 16.4857 59.2854 18.452 59.4208 21.3363C59.4533 22.0567 59.4804 22.6553 59.5021 23.2647L59.5183 23.7901C59.559 25.1226 59.5752 26.669 59.5806 29.7159L59.5833 31.7363V35.2842C59.5899 37.2597 59.5692 39.2352 59.521 41.2101L59.5048 41.7355C59.4831 42.3449 59.456 42.9434 59.4235 43.6638C59.2881 46.5482 58.8277 48.5117 58.1615 50.2397C57.4822 52.0476 56.4165 53.6854 55.0388 55.0388C53.6853 56.4165 52.0475 57.4822 50.2396 58.1615C48.5144 58.8305 46.5481 59.2855 43.6665 59.4209L41.7381 59.5022L41.2127 59.5184C39.8775 59.5563 38.331 59.5753 35.2842 59.5807L33.2638 59.5834H29.7185C27.7422 59.5904 25.7658 59.5696 23.79 59.5211L23.2646 59.5049C22.6217 59.4805 21.9789 59.4525 21.3363 59.4209C18.4546 59.2855 16.4883 58.8305 14.7604 58.1615C12.9535 57.4819 11.3166 56.4162 9.96396 55.0388C8.58527 53.6857 7.51863 52.0478 6.83855 50.2397C6.16959 48.5145 5.71459 46.5482 5.57917 43.6638L5.49792 41.7355L5.48438 41.2101C5.43445 39.2352 5.41188 37.2597 5.41667 35.2842V29.7159C5.40917 27.7405 5.42904 25.765 5.47625 23.7901L5.49521 23.2647C5.51688 22.6553 5.54396 22.0567 5.57646 21.3363C5.71188 18.452 6.16688 16.4884 6.83584 14.7605C7.51751 12.9519 8.58603 11.314 9.96667 9.96133C11.3185 8.58428 12.9545 7.51861 14.7604 6.83862C16.4883 6.16966 18.4519 5.71466 21.3363 5.57925C22.0567 5.54675 22.6579 5.51966 23.2646 5.498L23.79 5.48175C25.7649 5.43363 27.7404 5.41286 29.7158 5.41946L35.2842 5.41675ZM32.5 18.9584C28.9085 18.9584 25.4642 20.3851 22.9246 22.9247C20.385 25.4642 18.9583 28.9086 18.9583 32.5001C18.9583 36.0916 20.385 39.5359 22.9246 42.0755C25.4642 44.615 28.9085 46.0417 32.5 46.0417C36.0915 46.0417 39.5359 44.615 42.0754 42.0755C44.615 39.5359 46.0417 36.0916 46.0417 32.5001C46.0417 28.9086 44.615 25.4642 42.0754 22.9247C39.5359 20.3851 36.0915 18.9584 32.5 18.9584ZM32.5 24.3751C33.567 24.3749 34.6236 24.5849 35.6094 24.993C36.5952 25.4012 37.491 25.9995 38.2456 26.7539C39.0002 27.5082 39.5989 28.4038 40.0074 29.3895C40.4158 30.3752 40.6262 31.4317 40.6264 32.4987C40.6265 33.5657 40.4166 34.6223 40.0084 35.6081C39.6002 36.594 39.0019 37.4898 38.2476 38.2444C37.4932 38.999 36.5976 39.5976 35.6119 40.0061C34.6262 40.4146 33.5697 40.6249 32.5027 40.6251C30.3478 40.6251 28.2812 39.7691 26.7575 38.2453C25.2337 36.7216 24.3777 34.655 24.3777 32.5001C24.3777 30.3452 25.2337 28.2786 26.7575 26.7548C28.2812 25.2311 30.3478 24.3751 32.5027 24.3751M46.7215 14.8959C45.8236 14.8959 44.9625 15.2526 44.3276 15.8875C43.6927 16.5224 43.336 17.3835 43.336 18.2813C43.336 19.1792 43.6927 20.0403 44.3276 20.6752C44.9625 21.3101 45.8236 21.6667 46.7215 21.6667C47.6193 21.6667 48.4804 21.3101 49.1153 20.6752C49.7502 20.0403 50.1069 19.1792 50.1069 18.2813C50.1069 17.3835 49.7502 16.5224 49.1153 15.8875C48.4804 15.2526 47.6193 14.8959 46.7215 14.8959Z" fill="black"/>
</svg>
