<svg width="65" height="65" viewBox="0 0 65 65" fill="none" xmlns="http://www.w3.org/2000/svg">
<path fill-rule="evenodd" clip-rule="evenodd" d="M13.5417 2.70825C10.6685 2.70825 7.913 3.84962 5.88135 5.88126C3.84971 7.91291 2.70834 10.6684 2.70834 13.5416V51.4583C2.70834 54.3314 3.84971 57.0869 5.88135 59.1186C7.913 61.1502 10.6685 62.2916 13.5417 62.2916H51.4583C54.3315 62.2916 57.087 61.1502 59.1187 59.1186C61.1503 57.0869 62.2917 54.3314 62.2917 51.4583V13.5416C62.2917 10.6684 61.1503 7.91291 59.1187 5.88126C57.087 3.84962 54.3315 2.70825 51.4583 2.70825H13.5417ZM12.6371 12.1874C12.3406 12.2976 12.074 12.4755 11.8584 12.7069C11.6428 12.9384 11.4842 13.2169 11.3953 13.5205C11.3064 13.824 11.2896 14.1441 11.3463 14.4553C11.4029 14.7665 11.5315 15.0601 11.7217 15.3128L26.9263 35.4899L10.9065 52.6743L10.7873 52.8124H16.3313L29.4125 38.786L39.4658 52.1326C39.6991 52.4416 40.0158 52.6774 40.3786 52.8124H52.3548C52.6508 52.7017 52.9169 52.5233 53.1319 52.2916C53.3469 52.06 53.5049 51.7813 53.5932 51.4778C53.6816 51.1743 53.6979 50.8544 53.6409 50.5435C53.5839 50.2327 53.4551 49.9394 53.2648 49.687L38.0602 29.5099L54.2127 12.1874H48.6606L35.5794 26.2166L25.5206 12.8699C25.2878 12.56 24.9711 12.3232 24.6079 12.1874H12.6371ZM42.1038 48.8799L17.4173 16.1199H22.8854L47.5692 48.8772L42.1038 48.8799Z" fill="black"/>
</svg>
