<svg width="70" height="70" viewBox="0 0 70 70" fill="none" xmlns="http://www.w3.org/2000/svg">
<path d="M55.4167 5.83333H14.5833C9.625 5.83333 5.83333 9.62499 5.83333 14.5833V55.4167C5.83333 60.375 9.625 64.1667 14.5833 64.1667H55.4167C60.375 64.1667 64.1667 60.375 64.1667 55.4167V14.5833C64.1667 9.62499 60.375 5.83333 55.4167 5.83333ZM23.3333 49.5833C23.3333 51.3333 22.1667 52.5 20.4167 52.5C18.6667 52.5 17.5 51.3333 17.5 49.5833V37.9167C17.5 36.1667 18.6667 35 20.4167 35C22.1667 35 23.3333 36.1667 23.3333 37.9167V49.5833ZM37.9167 49.5833C37.9167 51.3333 36.75 52.5 35 52.5C33.25 52.5 32.0833 51.3333 32.0833 49.5833V20.4167C32.0833 18.6667 33.25 17.5 35 17.5C36.75 17.5 37.9167 18.6667 37.9167 20.4167V49.5833ZM52.5 49.5833C52.5 51.3333 51.3333 52.5 49.5833 52.5C47.8333 52.5 46.6667 51.3333 46.6667 49.5833V32.0833C46.6667 30.3333 47.8333 29.1667 49.5833 29.1667C51.3333 29.1667 52.5 30.3333 52.5 32.0833V49.5833Z" fill="#CBFFD0"/>
</svg>
